<svg viewBox="0 0 247 70"><defs><style>.chlogo-1{fill:#009245;}.chlogo-2{fill:#376491;}.chlogo-3{fill:#fff;}.chlogo-4{fill:#b25b5b;}</style></defs><title>Τα Χορτάτα</title><g data-name="Layer 2" id="Layer_2"><g data-name="Layer 1" id="Layer_1-2"><g id="logo"><g id="logo-2"><path class="chlogo-1" d="M37.55,22.73c2,2.22,2.23,5,3.17,7.63C41.58,27.2,40.92,24,37.55,22.73Zm-20,1.94c-.46,1.32-1.32,1.46-2.18,1.74a5,5,0,0,1,.86.74C17,27,18.05,25.53,17.58,24.67ZM9.73,34.93c-.22,2.06,2.83,1.73,3.88,1.27a3.88,3.88,0,0,0,2.24-4.1C15,35.05,12.59,36.35,9.73,34.93Zm0-3.62C8.2,30.92,9.1,29.56,8.85,29c-1.84.51-.72,3.32.84,2.28ZM21.63,43c-.45,3.9-6.77,4.28-7.73.38C13.5,48.29,22.48,48.34,21.63,43ZM7.76,38.12c-.91-.84-2.64-1.38-3-2.41-.41,1.38,1.56,3,3,2.41Zm8.29,13.94c-.13,4.46,6.61,1.82,5.52-1.91C21.15,53,17.44,54.81,16.05,52.06ZM8.7,51.24a2.33,2.33,0,0,1-4.31.41C3.86,54.81,9.59,54.48,8.7,51.24Zm4.62,6.4c-.48,1.56-2.05,2.11-2.83.92-.55,2.85,3.84,1.3,2.8-.92ZM6.77,62.5a1.58,1.58,0,0,1-2.2,1c-.18,2.28,3.12.59,2.17-1ZM51,39.48c.25-2.59,1.88-6,1.13-8.73-.34-1.24-1.6-2.65-1-3.87.45-.87,1.56-.93,2.55-1.05-4.11-2.32-4.94-8.54-10.29-10.06-3.1-.88-5,1.79-7.2,4.05-.09-3.13-3.6-5-6.5-7.11,2.55-.86,6.83-2.27,9.3.66.51-.42,1.19-.4,1.5-1.36-4.07-1.64-8.33-2.12-11-1.1.17-4,.51-8.68-3.6-10.4S18,2.06,13.89.6a12.11,12.11,0,0,1,1.65,3.84c-2.51-.57-5.24-1.69-7.26-1a7.09,7.09,0,0,1,2,2.1C7.39,5.82,2.34,7.74.18,8.68c1.22-.21,5-.88,7-1.4,2.19-.57,6-.37,4.93-2.87,1.83.82,3.7,1.78,5,1.1.91-1.46-.34-2.14-.38-3.25,3.3.84,6.35-2.33,9.48-.08,2.31,1.66,2.05,6.5,1.83,9.4C25,13,21.46,14.69,18.71,15.84c3.38-.6,6.55-1.77,9.82-2.64,2.25,1.87,5.22,3.47,5.84,5.94-.66.94-1.93,1-2,2.5.22,1.05,2.27,1.93,3.21,2.34A14.53,14.53,0,0,1,34,23.74a10.36,10.36,0,0,0-2.12,1.6c-1.94-.1-5.49-3.8-6.4-1.75-.43.83,1.38,2.21.95,3.48s-1.53,1.16-2.6,1.89c-.08-2.65-.88-5.07-4.18-6.56-3.9,4-9.81,2.51-16.12-.06.52-1.24.15-2.16.94-3.5-.67-.15-1.11.19-1.75.05.48-.53.39-.83.52-1.48a4.58,4.58,0,0,0-1.5-.86C3.34,15.38,4.45,14,6.14,13.28c2.43-1,5.32-.55,7.61-2-3.51-2.34-8.08-.5-12-3A11.41,11.41,0,0,0,.2,8.65a19.92,19.92,0,0,0,9.25,3.06C5.74,12.17,2.7,14.44,0,17.65c.66.26,1.09,0,1.83.51.44.47-.56,1.37-.44,1.68A3.32,3.32,0,0,1,3.21,20C2.12,21,1.6,23.43.76,24.17c2.38-1.08,5.77.58,9,1.75.45.26.12.81.52,1.09,4.66-1.5,9,3.16,7,7.51-3,6.56-12.9,1.6-9.63-4.94A7.6,7.6,0,0,1,10.28,27c-4.8,2-5.81,9.5-.66,11.85-4.3,2.68-7.86-4.53-3.27-7.17C2.38,33,1.57,39.56,6,41c-2.75,1.21-3.63,5.7-2,7.65-3,2.71-1.71,6.55,1.36,8.16a4.6,4.6,0,0,0-.24,3.49A3.65,3.65,0,0,0,3,62.36C.59,67.62,8.41,70,10.06,64.46a9.76,9.76,0,0,0,.08-2c3.49,2.64,7.42-2.37,6.47-5.42,4.82,2.22,9.52-3.3,8.21-7.69-.41-1.46-1.73-2-.1-3.11C29.1,52,36.92,44.35,33,39.91c.57.07.89-.56,1.45-.53-.35,1.87,2.69,4.16,4.57,3.48A7.54,7.54,0,0,0,41.9,46.6c.46-1.81,1.64-3.17,2.14-5,.62.4,1.11,1.47,1.52,1.55.42-2.64,2.55-6.48,2.18-8.41A15.57,15.57,0,0,0,51,39.48ZM17.39,28.25A7.68,7.68,0,0,0,15,26.66,11,11,0,0,0,19.35,24c.82,1.37-.59,3.83-2,4.25Zm4.43-1c-.47-.22-.69.23-1.19,0a5.8,5.8,0,0,0,.28-2.45,3,3,0,0,1,.92,2.46Zm-3.3,2.6c.56-.69,1.32-.91,1.75-1.93.66.16,1.15-.07,1.82.15a11.46,11.46,0,0,0,1,3.38c.79-.41,1.37-1.4,2.42-1.12.06.94-1.33.29-1.79.89a8,8,0,0,1,2.72.05,15.22,15.22,0,0,1-1.63,6.11,17,17,0,0,0,4-.06c-.59,3.21-5.87,2.79-6.61-.14-.23,3.43,4.58,4.59,6.48,2,.4-.56.38-1.81,1.2-1.85a4.72,4.72,0,0,1-6.66,3.61,5.24,5.24,0,0,1-.35-9.24c-1.48-.06-4,2.93-3.6,5.19-.41.33-.57-.4-1-.46a6.73,6.73,0,0,0,.3-6.55ZM13.71,39.92c.91-1.32,2.42-.81,3.48-2.33,2.55-.7,1.95,1.62,3.31,3.23a8.66,8.66,0,0,0,3,2.07c-.33,4.22-3.68,6.25-6.75,5.29S11.45,43.17,13.71,39.92ZM12,52.47c.78.42,1.68-.2,2.11.28-.47.86-1.33.66-2.22.35.09-.2.31-.48.11-.6Zm.75-5.28c.73.66,1.13,1.46,2.15,2-.52,3.67-3.35,2.39-3.69.18A7.66,7.66,0,0,0,12.74,47.19Zm.53-7.81c.34.4-1,1.47-1.18,2.54a12.6,12.6,0,0,0-1.64-1.27,3.73,3.73,0,0,1,2.82-1.26ZM5.34,47.9a4.63,4.63,0,0,1,1-6.92c1.26.88,2.19-.2,3.22.12,2.82.86,2.87,5.32.21,6.95-.35-.4-.45-.25-1-.45a3.86,3.86,0,0,0,1.79-3.13c-.76,2.21-3.74,3-4.63.77-.37.5.27,1.62.91,2.13a2.62,2.62,0,0,0-1,.38c3.47-.52,5.86,2.77,4.29,5.57-2.84,5.07-10.4-2-4.71-5.42Zm.72,8.89a4.5,4.5,0,0,0,2.85-.22c0,.66-.5,1.51-.49,2.17l-.57-.26A1.18,1.18,0,0,0,8.51,60h0a20.8,20.8,0,0,0-2.1-.29A3.33,3.33,0,0,1,6.06,56.79Zm-1.4,8.95c-2.18-1.4-.79-6.19,2.2-5.5C11.2,61.25,8.07,67.93,4.66,65.74Zm6.21-4.51c-2.52-1.43-1.25-6.88,2-6.45C18.14,55.48,14.89,63.51,10.87,61.23Zm6.27-5.69c-2.23-1.12-2.44-3.53-1.65-6.07C18.71,51,21,50,23.07,48.34c2.23,3.63-2,9.17-5.95,7.2Zm9.1-9.67A3.47,3.47,0,0,1,25,43.41c2.29-.66,4.8-.82,6.16-4C35.37,42.26,30.78,49.16,26.24,45.87Zm5.52-8.94c.66.08,1.1-.4,1.66-.6a5.64,5.64,0,0,1,.32,1.52,2,2,0,0,1-2.21.69A12.48,12.48,0,0,0,31.76,36.93Zm13.62,4.73-1.47-2.39A19.11,19.11,0,0,0,42,44.21a11.87,11.87,0,0,1-1.9-2.61c-1.42.66-3.15-1.32-4.86-1.38,1.58-1.54,0-2.93.27-5,.15-1.5,1-2.53.87-3.37s-2.43-2.64-3.3-1c-.59,1.07.76,1.32.35,2.56C32.56,36,27.81,34.64,26,36.46c1.59-3.07,3.08-6.95,3.18-9.84,3.78,2.8,4.87-1.67,7.4-2.25a10.87,10.87,0,0,0-2-2.64c.7-.42,1.15-1.54,2.35-.66,1.62-1.18,2.44-2.6,4-3.46,4.36-2.41,7.44,5.23,10,7.35-.22.58-.66.56-.88,1.14-1,2.07.92,3.77,1.15,5.68.27,2.24-1,4.54-.06,6.82-1-.93-1.23-2.79-1.95-4.33s-1.43-3.3-3-3.6a17,17,0,0,1-.79,11ZM25.67,42.79c-.17,3.23,5.64,3.09,4.88-.5C29.84,45.07,26.55,44.27,25.67,42.79Z"></path><path class="chlogo-2" d="M87.22,59.15,83.85,48,75.36,59.15H64.3L80.19,39.91,73.59,21.5H84.65l2.93,10.19,7.58-10.2h11.06L91.16,39.91l7.13,19.24Zm36.13-13.43a22.76,22.76,0,0,1-2.2,6.14,15.49,15.49,0,0,1-3.39,4,14.88,14.88,0,0,1-9.91,3.59c-3.81,0-6.58-1.2-8.28-3.59a8.05,8.05,0,0,1-1.53-4,19.25,19.25,0,0,1,.61-6.14,22.79,22.79,0,0,1,2.23-6.1,14.94,14.94,0,0,1,3.36-4,14.5,14.5,0,0,1,9.9-3.54q5.77,0,8.25,3.54a8.24,8.24,0,0,1,1.57,4A19,19,0,0,1,123.35,45.72Zm-9.58,0a20.59,20.59,0,0,0,.6-3.3c0-1.52-.66-2.28-2.08-2.28a3.27,3.27,0,0,0-3.11,2.28,22.08,22.08,0,0,0-.91,3.3,13.29,13.29,0,0,0-.53,3.92,1.79,1.79,0,0,0,1.87,1.69h.11a3.2,3.2,0,0,0,2.82-1.69,16.26,16.26,0,0,0,1.21-3.91Zm36.13-9.94a7,7,0,0,1,.88,3.54,31.46,31.46,0,0,1-1,6.4A35.3,35.3,0,0,1,147.92,52a12.73,12.73,0,0,1-11.71,7.32,3.85,3.85,0,0,1-2.38-.72,2.36,2.36,0,0,1-1.05-1.4L129.86,70h-9.57l5.56-24.33A24,24,0,0,1,128,39.62a14.59,14.59,0,0,1,3.39-4.07q4-3.49,10.52-3.49Q147.89,32,149.9,35.78ZM136.54,51.27a2.57,2.57,0,0,0,2.39-1.42,16.59,16.59,0,0,0,1.32-4.13,16,16,0,0,0,.6-4.23c-.11-.91-.69-1.37-1.75-1.37s-2,.72-2.64,2.16a19.88,19.88,0,0,0-1,3.44,14.77,14.77,0,0,0-.55,4,1.48,1.48,0,0,0,1.43,1.53Zm35.93-10.83h-5.39L165,49.64c-.17.77.09,1.16.8,1.16h2.48l-1.92,8.35H161.4a6.53,6.53,0,0,1-5.28-2.24A6.07,6.07,0,0,1,155,51.33l2.49-10.89H151.9l1.89-8.09h20.55Zm20.7,18.71h-9.63l.71-3.12q-1.47,3.4-5.86,3.4c-3.78,0-6-1.54-6.77-4.62q-.76-3.12.59-9,1.54-6.72,4-9.79a10.09,10.09,0,0,1,8.47-3.91c2.75,0,4.21,1.13,4.36,3.38l.67-3.1h9.64Zm-6.56-13.42a13.65,13.65,0,0,0,.51-3.86,1.46,1.46,0,0,0-1.46-1.49h-.21a2.57,2.57,0,0,0-2.38,1.37,15.81,15.81,0,0,0-1.28,4,14,14,0,0,0-.54,4c.1,1,.68,1.42,1.74,1.42a2.55,2.55,0,0,0,2.36-1.53,15.45,15.45,0,0,0,1.26-3.86Zm15.62-24.54-9.39,7.72h-7l5.29-7.72h11.14Zm17.93,19.25h-5.39l-2.12,9.2c-.17.77.09,1.16.8,1.16H216l-1.91,8.35h-4.92a6.53,6.53,0,0,1-5.29-2.24,6,6,0,0,1-1.15-5.58l2.49-10.89h-5.56l1.86-8.09H222Zm20.7,18.71h-9.63l.71-3.11q-1.45,3.39-5.85,3.39-5.67,0-6.77-4.62c-.51-2.08-.32-5.09.59-9q1.53-6.72,4-9.79a10.09,10.09,0,0,1,8.47-3.91q4.13,0,4.36,3.38l.67-3.1H247ZM234.3,45.73a13.65,13.65,0,0,0,.51-3.86,1.47,1.47,0,0,0-1.46-1.49h-.21a2.57,2.57,0,0,0-2.38,1.37,15.81,15.81,0,0,0-1.28,4,13.67,13.67,0,0,0-.53,4c.1,1,.68,1.42,1.74,1.42a2.55,2.55,0,0,0,2.36-1.53,15.79,15.79,0,0,0,1.26-3.85Z"></path><path class="chlogo-3" d="M53.24,21.47H39.94l-1.2,5.29h3.6l-1.62,7a3.67,3.67,0,0,0,.75,3.48,4.14,4.14,0,0,0,3.41,1.33h3.19l1.24-5.29H47.7c-.46,0-.66-.17-.52-.66l1.37-5.9H52Zm0-.66H39.42l-.12.46-1.2,5.29-.19.83h3.6l-1.43,6.24A4.32,4.32,0,0,0,41,37.69a4.75,4.75,0,0,0,3.91,1.56h3.71l.12-.39L50,33.45l.19-.78H47.83l1.23-5.29h3.5l.12-.56,1.2-5.24.18-.78h-.82ZM47.18,32.65c-.11.5,0,.66.52.66h1.61l-1.24,5.28H44.88a4.16,4.16,0,0,1-3.4-1.32,3.72,3.72,0,0,1-.75-3.52l1.62-7H38.74l1.2-5.28h13.3L52,26.77h-3.5Zm13.7-5c0-.29-.09-.37-.43-.37a1,1,0,0,0-1,.57,9.62,9.62,0,0,0-.75,2.39,8,8,0,0,0-.34,2.37c0,.2,0,.34.47.34a1.05,1.05,0,0,0,1-.67,9.45,9.45,0,0,0,.74-2.33,8.08,8.08,0,0,0,.31-2.3Zm2.31-6.16-.46,2c-.1-1.47-1-2.23-2.83-2.23a6.48,6.48,0,0,0-5.48,2.54,16.65,16.65,0,0,0-2.55,6.36A13.59,13.59,0,0,0,51.49,36q.7,3,4.38,3a3.79,3.79,0,0,0,3.79-2.32l-.46,1.92h6.24l4-17.12H63.18Zm-2,8.58a10.09,10.09,0,0,1-.81,2.51,1.67,1.67,0,0,1-1.53,1,1,1,0,0,1-1.11-.82.41.41,0,0,1,0-.11,8.82,8.82,0,0,1,.35-2.55,10.1,10.1,0,0,1,.83-2.58,1.67,1.67,0,0,1,1.54-.9,1,1,0,0,1,1.07.85v.12a8.83,8.83,0,0,1-.33,2.51Zm8.23-9.25H62.66l-.12.47v.09a3.69,3.69,0,0,0-2.64-.85,7.19,7.19,0,0,0-6,2.8,16.6,16.6,0,0,0-2.64,6.6,14.19,14.19,0,0,0-.38,6.19c.38,1.6,1.56,3.52,5,3.52A5.41,5.41,0,0,0,58.5,39l-.1.29H66l.11-.39,4-17.34.18-.7h-.82ZM59.21,38.59l.46-1.91a3.78,3.78,0,0,1-3.79,2.26c-2.44,0-3.9-1-4.39-3a13.59,13.59,0,0,1,.39-5.87,16.53,16.53,0,0,1,2.55-6.37,6.52,6.52,0,0,1,5.48-2.54c1.78,0,2.72.79,2.83,2.25l.45-2h6.23l-4,17.12Zm1.24-12a1.69,1.69,0,0,0-1.54.9,10.21,10.21,0,0,0-.82,2.58,9,9,0,0,0-.35,2.59,1,1,0,0,0,1,.94h.12a1.67,1.67,0,0,0,1.53-1,10.09,10.09,0,0,0,.81-2.51,8.88,8.88,0,0,0,.33-2.51,1,1,0,0,0-.94-1h0Zm-1.59,6.33c-.44,0-.45-.14-.47-.34a7.58,7.58,0,0,1,.34-2.36,9.1,9.1,0,0,1,.75-2.39,1,1,0,0,1,1-.58c.34,0,.4.09.43.37a7.86,7.86,0,0,1-.32,2.31,9,9,0,0,1-.74,2.33,1,1,0,0,1-1,.67Z"></path><path class="chlogo-4" d="M53.23,21.47H39.8l-1.21,5.28h3.65l-1.65,7a3.64,3.64,0,0,0,.76,3.49,4.16,4.16,0,0,0,3.44,1.32H48l1.26-5.28H47.63c-.46,0-.66-.17-.52-.66l1.38-5.91H52Zm10,0-.45,2c-.1-1.47-1.06-2.23-2.86-2.23a6.57,6.57,0,0,0-5.53,2.54,16.3,16.3,0,0,0-2.58,6.36A13,13,0,0,0,51.49,36c.48,2,1.95,3,4.42,3a3.85,3.85,0,0,0,3.83-2.32l-.47,1.91h6.29l4-17.12Zm-2,8.58a10.11,10.11,0,0,1-.82,2.51,1.69,1.69,0,0,1-1.55,1,1,1,0,0,1-1.12-.82.41.41,0,0,1,0-.11,8.84,8.84,0,0,1,.3-2.56,10.67,10.67,0,0,1,.84-2.58,1.67,1.67,0,0,1,1.56-.9,1,1,0,0,1,1.09.84s0,.08,0,.13a8.94,8.94,0,0,1-.32,2.52Z"></path></g></g></g></g></svg>