<svg id="logo" xmlns="http://www.w3.org/2000/svg" width="748" height="106" viewBox="0 0 748 106">
  <defs>
    <style>
      .cls-1 {
        fill: #009245;
      }

      .cls-1, .cls-2, .cls-3, .cls-4, .cls-5 {
        fill-rule: evenodd;
      }

      .cls-2 {
        fill: #376491;
      }

      .cls-3 {
        fill: #fff;
      }

      .cls-4 {
        fill: #b25b5b;
      }

      .cls-5 {
        fill: #0d7b41;
      }
    </style>
  </defs>
  <g id="logo-2" data-name="logo">
    <path class="cls-1" d="M56.9,34.453C59.857,37.8,60.284,42.083,61.7,46,62.969,41.216,61.983,36.315,56.9,34.453ZM26.666,37.381c-0.7,1.967-2.03,2.214-3.3,2.629a8.783,8.783,0,0,1,1.3,1.12C25.844,40.835,27.381,38.69,26.666,37.381ZM14.781,52.916c-0.332,3.118,4.285,2.631,5.872,1.927a5.877,5.877,0,0,0,3.4-6.214C22.759,53.1,19.107,55.076,14.781,52.916ZM14.718,47.44C12.466,46.848,13.824,44.8,13.449,44,10.665,44.754,12.356,48.994,14.718,47.44ZM32.8,65.111c-0.694,5.9-10.25,6.469-11.712.57C20.492,73.143,34.087,73.22,32.8,65.111ZM11.76,57.749c-1.377-1.27-3.972-2.092-4.552-3.654C6.629,56.193,9.624,58.71,11.76,57.749ZM24.351,78.855c-0.2,6.755,9.962,2.753,8.365-2.891C32.07,80.341,26.462,83.053,24.351,78.855ZM13.218,77.615c-0.978,3.311-5.034,3.191-6.533.623C5.89,82.972,14.575,82.524,13.218,77.615Zm6.956,9.691c-0.732,2.358-3.106,3.187-4.289,1.395C15.1,92.966,21.741,90.66,20.174,87.306Zm-9.917,7.362C9.6,96.437,8.383,96.663,6.924,96.244,6.692,99.7,11.688,97.137,10.257,94.668ZM77.309,59.8c0.375-3.916,2.839-9.134,1.707-13.221-0.519-1.869-2.418-3.981-1.45-5.855,0.683-1.319,2.355-1.406,3.861-1.593-6.228-3.51-7.49-12.915-15.581-15.22-4.7-1.339-7.6,2.71-10.906,6.129-0.134-4.74-5.45-7.58-9.842-10.759,3.872-1.3,10.349-3.44,14.087,1.043,0.772-.64,1.791-0.61,2.261-2.071-6.15-2.52-12.6-3.283-16.643-1.7,0.26-5.96.78-13.14-5.451-15.741C33.006-1.845,27.288,3.151,21.075.943a18.477,18.477,0,0,1,2.5,5.823C19.761,5.9,15.634,4.2,12.545,5.312A10.663,10.663,0,0,1,15.5,8.488c-4.256.364-11.9,3.267-15.179,4.679,1.848-.321,7.584-1.332,10.607-2.116,3.317-.86,9.083-0.563,7.475-4.339,2.772,1.244,5.616,2.685,7.554,1.665,1.369-2.217-.525-3.237-0.576-4.934C30.39,4.725,35-.084,39.746,3.32c3.5,2.512,3.1,9.853,2.764,14.244C37.884,19.655,32.5,22.271,28.337,24c5.123-.9,9.925-2.68,14.88-4.039,3.4,2.835,7.9,5.265,8.837,9-0.972,1.418-2.921,1.547-3.054,3.78,0.34,1.586,3.444,2.922,4.865,3.539a22.442,22.442,0,0,1-2.441-.346,15.2,15.2,0,0,0-3.2,2.416c-2.939-.146-8.315-5.75-9.7-2.654-0.6,1.348,2.124,3.4,1.432,5.329-0.623,1.739-2.321,1.765-3.927,2.86-0.126-4.035-1.343-7.667-6.329-9.919-5.895,6.05-14.849,3.8-24.413-.094,0.793-1.888.233-3.279,1.421-5.311-0.972-.224-1.666.3-2.639,0.08,0.732-.8.592-1.259,0.777-2.235a6.853,6.853,0,0,0-2.259-1.3C5.06,23.338,6.75,21.261,9.3,20.161c3.677-1.584,8.057-.837,11.531-2.986-5.309-3.549-12.239-.76-18.208-4.5a17.447,17.447,0,0,0-2.31.492A30.263,30.263,0,0,0,14.3,17.8C8.689,18.5,4.088,21.942,0,26.767c0.971,0.38,1.647-.036,2.77.758,0.672,0.722-.84,2.077-0.661,2.55a4.982,4.982,0,0,1,2.754.23c-1.647,1.549-2.437,5.2-3.715,6.33,3.605-1.642,8.742.865,13.607,2.639,0.694,0.4.184,1.233,0.791,1.662,7.062-2.269,13.608,4.778,10.6,11.368-4.527,9.919-19.534,2.42-14.592-7.486,0.863-1.731,2.731-2.965,3.991-3.881-7.272,2.99-8.8,14.382-1.032,17.94-6.4,4.043-11.806-6.9-4.849-10.839C3.631,49.986,2.434,59.944,9.117,62.1c-4.172,1.837-5.5,8.644-3.025,11.576-4.461,4.086-2.57,9.9,2.071,12.366A7.044,7.044,0,0,0,7.8,91.32a5.5,5.5,0,0,0-3.284,3.156C0.949,102.4,12.781,106,15.285,97.622c0.324-1.086.043-1.605,0.117-3.058,5.294,3.975,11.229-3.59,9.786-8.2,7.311,3.362,14.421-4.953,12.426-11.654-0.654-2.2-2.606-3.051-.145-4.737,6.644,8.808,18.475-2.844,12.491-9.547,0.868,0.1,1.348-.852,2.2-0.806-0.529,2.839,4.081,6.3,6.925,5.265,0.533,2.23,2.358,3.984,4.4,5.66,0.7-2.736,2.486-4.8,3.254-7.578,0.937,0.605,1.67,2.22,2.292,2.352,0.645-3.963,3.863-9.813,3.3-12.743C73.693,55.09,74.866,57.677,77.309,59.8ZM26.381,42.815A11.611,11.611,0,0,0,22.819,40.4,16.575,16.575,0,0,0,29.353,36.4C30.59,38.449,28.449,42.179,26.381,42.815Zm6.714-1.576c-0.714-.329-1.054.358-1.8-0.05,0.644-1.419.323-2.484,0.414-3.7A4.523,4.523,0,0,1,33.095,41.239Zm-4.95,3.946C29,44.134,30.128,43.807,30.8,42.259c0.98,0.242,1.739-.111,2.755.232a16.708,16.708,0,0,0,1.532,5.115c1.192-.624,2.063-2.125,3.645-1.692,0.1,1.421-2.043.437-2.706,1.347a12.166,12.166,0,0,1,4.124.084c0.115,2.737-1.054,5.946-2.463,9.241a25.886,25.886,0,0,0,6.021-.08c-0.883,4.86-8.876,4.208-10.046-.218-0.351,5.193,6.936,6.948,9.813,2.965,0.611-.846.584-2.739,1.817-2.8-0.771,5.385-6.23,7.15-10.082,5.471C29.735,59.541,29,51.3,34.676,47.934c-2.238-.085-6,4.442-5.464,7.858-0.624.5-.859-0.611-1.5-0.691A10.192,10.192,0,0,0,28.145,45.185ZM20.8,60.475c1.39-2,3.672-1.233,5.28-3.533,3.859-1.054,2.947,2.446,5.012,4.9,1.252,1.488,2.475,2.045,4.534,3.127-0.493,6.387-5.571,9.461-10.214,8C20.69,71.495,17.379,65.389,20.8,60.475ZM18.213,79.516c1.182,0.644,2.541-.307,3.184.43-0.711,1.286-2,1-3.365.525C18.171,80.123,18.512,79.7,18.213,79.516Zm1.126-8.041c1.112,1.012,1.708,2.212,3.265,3.06-0.8,5.562-5.082,3.621-5.592.278A11.566,11.566,0,0,0,19.339,71.475Zm0.8-11.823c0.52,0.611-1.5,2.231-1.784,3.846a17.778,17.778,0,0,0-2.49-1.924C17.111,60.456,18.419,59.5,20.137,59.652ZM8.171,72.555C5.551,70.09,5.824,64.29,9.645,62.08c1.895,1.333,3.311-.309,4.866.167,4.261,1.305,4.354,8.057.324,10.526-0.541-.607-0.695-0.377-1.5-0.691a5.807,5.807,0,0,0,2.709-4.72C14.905,70.709,10.39,71.893,9,68.528c-0.573.745,0.4,2.449,1.367,3.224a4.162,4.162,0,0,0-1.567.574c5.247-.788,8.882,4.2,6.495,8.44C10.974,88.437-.452,77.72,8.171,72.555ZM9.219,86.009a6.759,6.759,0,0,0,4.323-.342c-0.014,1.01-.763,2.29-0.743,3.288q-0.429-.2-0.859-0.395a1.762,1.762,0,0,0,1.022,2.286,31.835,31.835,0,0,0-3.183-.43A5.061,5.061,0,0,1,9.219,86.009ZM7.1,99.56c-3.3-2.117-1.192-9.374,3.337-8.321C16.994,92.762,12.271,102.871,7.1,99.56Zm9.406-6.821c-3.822-2.175-1.885-10.428,2.974-9.784C27.46,84.012,22.557,96.182,16.507,92.738Zm9.457-8.613c-3.382-1.7-3.7-5.346-2.5-9.195,4.869,2.265,8.367.811,11.466-1.72C38.318,78.715,31.88,87.1,25.964,84.125ZM39.778,69.479a5.244,5.244,0,0,1-1.911-3.734c3.47-1.045,7.255-1.237,9.323-6.08C53.6,64.037,46.649,74.46,39.778,69.479ZM48.131,55.95c0.992,0.115,1.674-.609,2.508-0.92a8.26,8.26,0,0,1,.495,2.3,3.1,3.1,0,0,1-3.35,1.051A17.942,17.942,0,0,0,48.131,55.95Zm20.615,7.164c-0.744-1.2-1.48-2.413-2.225-3.619-1.349,1.916-2.247,5.2-2.94,7.465a18.02,18.02,0,0,1-2.869-3.916C58.568,64.09,55.952,61,53.358,60.952c2.391-2.333.08-4.428,0.4-7.6,0.228-2.256,1.51-3.827,1.323-5.1-0.2-1.364-3.669-3.973-5.014-1.532-0.894,1.622,1.152,2.019.543,3.881-1.273,3.892-8.456,1.912-11.269,4.664,2.412-4.638,4.675-10.52,4.824-14.9,5.72,4.249,7.372-2.527,11.2-3.4a16.2,16.2,0,0,0-3.082-4.015c1.071-.632,1.749-2.333,3.563-0.951,2.457-1.786,3.7-3.936,6.072-5.243,6.609-3.648,11.266,7.915,15.138,11.125-0.328.88-.992,0.845-1.32,1.726-1.52,3.127,1.392,5.7,1.744,8.586,0.413,3.391-1.507,6.878-.1,10.327-1.448-1.41-1.862-4.216-2.949-6.547-0.992-2.126-2.157-5.036-4.5-5.446C71.011,51.522,71.444,56.743,68.746,63.113Zm-29.822,1.7C38.661,69.7,47.451,69.5,46.3,64.064,45.222,68.261,40.248,67.057,38.924,64.817Z"/>
    <path class="cls-2" d="M132.1,89.591L127,72.7,114.153,89.591H97.4l24.062-29.142L111.5,32.589h16.75l4.4,15.45,11.471-15.45h16.75l-22.808,27.86,10.8,29.142H132.1ZM186.8,69.256a34.558,34.558,0,0,1-3.328,9.287,23.376,23.376,0,0,1-5.141,6,22.5,22.5,0,0,1-14.951,5.444q-8.656,0-12.539-5.444a12.221,12.221,0,0,1-2.311-6,29.08,29.08,0,0,1,.924-9.287,34.55,34.55,0,0,1,3.328-9.287,22.925,22.925,0,0,1,5.08-6.083,21.963,21.963,0,0,1,15.013-5.364q8.735,0,12.477,5.364a12.386,12.386,0,0,1,2.372,6.083A29.019,29.019,0,0,1,186.8,69.256Zm-14.5,0a31.93,31.93,0,0,0,.9-4.963q0.066-3.442-3.138-3.442-3.124,0-4.715,3.442a33.424,33.424,0,0,0-1.377,4.963q-1.026,4.485-.8,5.925a2.72,2.72,0,0,0,3.021,2.561,4.9,4.9,0,0,0,4.273-2.561A24.344,24.344,0,0,0,172.29,69.256ZM227.045,54.2a10.874,10.874,0,0,1,1.328,5.364,47.875,47.875,0,0,1-1.5,9.687,53.621,53.621,0,0,1-2.853,9.488,18.636,18.636,0,0,1-3.858,5.483,18.854,18.854,0,0,1-13.866,5.6,5.819,5.819,0,0,1-3.6-1.081,3.6,3.6,0,0,1-1.6-2.121L196.665,106H182.159l8.432-36.826a36.449,36.449,0,0,1,3.187-9.208,22.179,22.179,0,0,1,5.132-6.163Q205,48.52,214.832,48.521,223.948,48.521,227.045,54.2ZM206.76,77.662a3.911,3.911,0,0,0,3.62-2.162,25.181,25.181,0,0,0,1.991-6.245,23.682,23.682,0,0,0,.907-6.4q-0.246-2.08-2.65-2.082-2.565,0-4.038,3.284a30.817,30.817,0,0,0-1.511,5.2,22.245,22.245,0,0,0-.831,6.085A2.249,2.249,0,0,0,206.76,77.662ZM261.166,61.25h-8.174L249.8,75.181q-0.4,1.759,1.2,1.761h3.765l-2.9,12.649h-7.452a9.918,9.918,0,0,1-7.958-3.4q-2.9-3.4-1.751-8.446l3.775-16.492h-8.413L232.876,49h31.1ZM292.5,89.591H277.919L279,84.866q-2.217,5.128-8.868,5.125-8.579,0-10.248-7.045-1.162-4.722.891-13.689,2.328-10.168,5.956-14.811,4.56-5.922,12.817-5.923,6.249,0,6.6,5.124L287.211,49H301.8Zm-9.928-20.335a20.613,20.613,0,0,0,.778-5.844,2.243,2.243,0,0,0-2.533-2.242,3.9,3.9,0,0,0-3.6,2.08,23.827,23.827,0,0,0-1.935,6.005,20.736,20.736,0,0,0-.815,6.005q0.226,2.159,2.631,2.16a3.9,3.9,0,0,0,3.578-2.32A23.554,23.554,0,0,0,282.575,69.256Zm23.651-37.147L292.01,43.8H281.35L289.4,32.108h16.829ZM333.372,61.25H325.2l-3.19,13.931q-0.4,1.759,1.2,1.761h3.765l-2.895,12.649h-7.454a9.911,9.911,0,0,1-7.956-3.4q-2.907-3.4-1.753-8.446l3.775-16.492h-8.413L305.082,49h31.1Zm31.335,28.341H350.123l1.082-4.725q-2.217,5.128-8.868,5.125-8.575,0-10.246-7.045-1.164-4.722.889-13.689,2.328-10.168,5.956-14.811,4.56-5.922,12.817-5.923,6.252,0,6.6,5.124L359.418,49H374Zm-9.928-20.335a20.575,20.575,0,0,0,.778-5.844,2.243,2.243,0,0,0-2.533-2.242,3.9,3.9,0,0,0-3.6,2.08,23.8,23.8,0,0,0-1.934,6.005,20.686,20.686,0,0,0-.814,6.005q0.226,2.159,2.629,2.16a3.9,3.9,0,0,0,3.578-2.32A23.554,23.554,0,0,0,354.779,69.256Z"/>
    <path class="cls-3" d="M80.654,32.544H60.518L58.7,40.52H64.15L61.7,51.176a5.569,5.569,0,0,0,1.136,5.285,6.264,6.264,0,0,0,5.153,2h4.826L74.7,50.49H72.256c-0.694,0-.952-0.262-0.778-1.025l2.065-8.945h5.293Zm0-1H59.727l-0.177.7-1.817,8.008-0.278,1.259H62.9l-2.168,9.437a6.541,6.541,0,0,0,1.349,6.155,7.233,7.233,0,0,0,5.908,2.354h5.617l0.177-.6,1.876-8.19,0.278-1.178H72.464l1.872-7.976h5.293l0.177-.849,1.817-7.935L81.9,31.547H80.654ZM71.478,49.465c-0.174.763,0.084,1.025,0.778,1.025H74.7l-1.876,7.976H67.993a6.288,6.288,0,0,1-5.153-2.042A5.663,5.663,0,0,1,61.7,51.09L64.15,40.52H58.7l1.817-7.976H80.654L78.837,40.52H73.544ZM92.215,41.87c-0.04-.43-0.13-0.555-0.65-0.555a1.554,1.554,0,0,0-1.481.87A14.1,14.1,0,0,0,88.946,45.8a11.935,11.935,0,0,0-.507,3.582c0.031,0.3.053,0.512,0.715,0.512a1.548,1.548,0,0,0,1.456-1.013,13.927,13.927,0,0,0,1.122-3.527A11.9,11.9,0,0,0,92.215,41.87ZM95.7,32.544l-0.688,2.95c-0.152-2.222-1.576-3.369-4.275-3.369a9.838,9.838,0,0,0-8.3,3.836q-2.353,3.023-3.858,9.628-1.33,5.836-.576,8.9,1.082,4.586,6.636,4.584a5.745,5.745,0,0,0,5.742-3.509l-0.7,2.9h9.445l6.017-25.922H95.7Zm-3,13.035a15.329,15.329,0,0,1-1.23,3.8,2.527,2.527,0,0,1-2.316,1.511,1.477,1.477,0,0,1-1.7-1.406,13.537,13.537,0,0,1,.527-3.908,15.475,15.475,0,0,1,1.254-3.906,2.524,2.524,0,0,1,2.333-1.355A1.455,1.455,0,0,1,93.2,41.777,13.428,13.428,0,0,1,92.7,45.579Zm12.447-14.032H94.912l-0.177.7-0.04.142a5.552,5.552,0,0,0-3.954-1.283,10.83,10.83,0,0,0-9.087,4.234c-1.668,2.143-2.991,5.419-4.038,10.018-0.93,4.082-1.117,7.144-.572,9.365,0.574,2.434,2.361,5.343,7.6,5.343a8.2,8.2,0,0,0,3.936-1.047l-0.14.44H99.923l0.176-.6,6.017-26.252,0.278-1.062h-1.246ZM89.686,58.466l0.7-2.9c-0.957,2.224-2.871,3.422-5.742,3.422-3.7,0-5.914-1.485-6.636-4.543-0.5-2.048-.31-4.995.576-8.885,1-4.411,2.289-7.611,3.858-9.626a9.848,9.848,0,0,1,8.3-3.848c2.7,0,4.122,1.186,4.275,3.408L95.7,32.544h9.444L99.131,58.466H89.686Zm1.879-18.148a2.524,2.524,0,0,0-2.333,1.355,15.475,15.475,0,0,0-1.254,3.906,13.537,13.537,0,0,0-.527,3.908,1.477,1.477,0,0,0,1.7,1.406,2.527,2.527,0,0,0,2.316-1.511,15.329,15.329,0,0,0,1.23-3.8,13.428,13.428,0,0,0,.5-3.8A1.455,1.455,0,0,0,91.565,40.318ZM89.154,49.9c-0.662,0-.685-0.215-0.715-0.512a11.935,11.935,0,0,1,.507-3.582,14.1,14.1,0,0,1,1.138-3.617,1.554,1.554,0,0,1,1.481-.87c0.52,0,.611.125,0.65,0.555a11.9,11.9,0,0,1-.483,3.487,13.927,13.927,0,0,1-1.122,3.527A1.548,1.548,0,0,1,89.154,49.9Z"/>
    <path class="cls-4" d="M80.641,32.527H60.3l-1.835,7.98h5.5L61.5,51.169a5.531,5.531,0,0,0,1.148,5.288,6.361,6.361,0,0,0,5.206,2.005h4.875l1.9-7.98H72.157c-0.7,0-.961-0.262-0.786-1.026l2.086-8.949h5.347Zm15.2,0L95.15,35.479c-0.154-2.223-1.592-3.371-4.318-3.371a9.977,9.977,0,0,0-8.384,3.837q-2.377,3.024-3.9,9.633-1.344,5.839-.582,8.906,1.094,4.588,6.7,4.586c2.9,0,4.834-1.286,5.8-3.511l-0.707,2.9h9.542l6.078-25.934h-9.54ZM92.811,45.569a15.233,15.233,0,0,1-1.243,3.8,2.554,2.554,0,0,1-2.34,1.512,1.488,1.488,0,0,1-1.721-1.407,13.418,13.418,0,0,1,.532-3.91,15.381,15.381,0,0,1,1.267-3.908A2.554,2.554,0,0,1,91.663,40.3a1.465,1.465,0,0,1,1.656,1.46A13.308,13.308,0,0,1,92.811,45.569Z"/>
  </g>
  <g id="logo_copy" data-name="logo copy">
    <path class="cls-5" d="M430.9,34.453c2.954,3.35,3.381,7.63,4.795,11.546C436.969,41.216,435.983,36.315,430.9,34.453Zm-30.237,2.928c-0.7,1.967-2.03,2.214-3.3,2.629a8.786,8.786,0,0,1,1.3,1.12C399.844,40.835,401.381,38.69,400.666,37.381ZM388.781,52.916c-0.332,3.118,4.286,2.631,5.872,1.927a5.878,5.878,0,0,0,3.4-6.214C396.759,53.1,393.107,55.076,388.781,52.916Zm-0.063-5.476c-2.252-.591-0.894-2.642-1.269-3.438C384.665,44.754,386.356,48.994,388.718,47.44ZM406.8,65.111c-0.694,5.9-10.25,6.469-11.712.57C394.492,73.143,408.087,73.22,406.8,65.111ZM385.76,57.749c-1.376-1.27-3.972-2.092-4.552-3.654C380.629,56.193,383.624,58.71,385.76,57.749Zm12.591,21.105c-0.2,6.755,9.963,2.753,8.365-2.891C406.07,80.341,400.462,83.053,398.351,78.855Zm-11.133-1.239c-0.978,3.311-5.034,3.191-6.532.623C379.89,82.972,388.575,82.524,387.218,77.615Zm6.956,9.691c-0.732,2.358-3.106,3.187-4.289,1.395C389.1,92.966,395.741,90.66,394.174,87.306Zm-9.917,7.362c-0.653,1.769-1.874,1.994-3.333,1.576C380.692,99.7,385.688,97.137,384.257,94.668ZM451.309,59.8c0.375-3.916,2.84-9.134,1.707-13.221-0.519-1.869-2.418-3.981-1.45-5.855,0.683-1.319,2.355-1.406,3.861-1.593-6.228-3.51-7.49-12.915-15.581-15.22-4.7-1.339-7.6,2.71-10.905,6.129-0.134-4.74-5.45-7.58-9.843-10.759,3.872-1.3,10.349-3.44,14.087,1.043,0.772-.64,1.792-0.61,2.261-2.071-6.15-2.52-12.6-3.283-16.643-1.7,0.259-5.96.779-13.14-5.452-15.741-6.345-2.649-12.063,2.346-18.276.138a18.473,18.473,0,0,1,2.5,5.823c-3.817-.862-7.944-2.564-11.033-1.453a10.658,10.658,0,0,1,2.95,3.176c-4.256.364-11.9,3.267-15.178,4.679,1.848-.321,7.584-1.332,10.607-2.116,3.317-.86,9.083-0.563,7.475-4.339,2.772,1.244,5.617,2.685,7.554,1.665,1.369-2.217-.525-3.237-0.575-4.934C404.39,4.725,409-.084,413.745,3.32c3.5,2.512,3.1,9.853,2.765,14.244-4.626,2.091-10.007,4.707-14.173,6.44,5.123-.9,9.925-2.68,14.88-4.039,3.4,2.835,7.9,5.265,8.837,9-0.971,1.418-2.921,1.547-3.054,3.78,0.34,1.586,3.445,2.922,4.865,3.539a22.463,22.463,0,0,1-2.441-.346,15.194,15.194,0,0,0-3.2,2.416c-2.939-.146-8.316-5.75-9.7-2.654-0.6,1.348,2.124,3.4,1.432,5.329-0.622,1.739-2.321,1.765-3.927,2.86-0.126-4.035-1.344-7.667-6.329-9.919-5.894,6.05-14.849,3.8-24.413-.094,0.794-1.888.233-3.279,1.421-5.311-0.972-.224-1.667.3-2.639,0.08,0.731-.8.592-1.259,0.776-2.235a6.853,6.853,0,0,0-2.259-1.3c2.473-1.769,4.163-3.846,6.716-4.947,3.677-1.584,8.057-.837,11.532-2.986-5.309-3.549-12.239-.76-18.209-4.5a17.458,17.458,0,0,0-2.309.492A30.262,30.262,0,0,0,388.3,17.8c-5.613.7-10.214,4.146-14.305,8.971,0.971,0.38,1.647-.036,2.77.758,0.672,0.722-.84,2.077-0.661,2.55a4.984,4.984,0,0,1,2.755.23c-1.647,1.549-2.437,5.2-3.715,6.33,3.606-1.642,8.742.865,13.607,2.639,0.694,0.4.183,1.233,0.791,1.662,7.063-2.269,13.608,4.778,10.6,11.368-4.527,9.919-19.535,2.42-14.593-7.486,0.863-1.731,2.732-2.965,3.991-3.881-7.272,2.99-8.8,14.382-1.032,17.94-6.4,4.043-11.807-6.9-4.85-10.839-6.031,1.949-7.228,11.907-.545,14.061-4.172,1.837-5.5,8.644-3.025,11.576-4.461,4.086-2.57,9.9,2.072,12.366a7.044,7.044,0,0,0-.365,5.28,5.5,5.5,0,0,0-3.284,3.156c-3.566,7.924,8.266,11.525,10.77,3.146,0.324-1.086.043-1.605,0.117-3.058,5.293,3.975,11.229-3.59,9.785-8.2,7.312,3.362,14.421-4.953,12.426-11.654-0.653-2.2-2.606-3.051-.145-4.737,6.644,8.808,18.475-2.844,12.492-9.547,0.868,0.1,1.347-.852,2.195-0.806-0.529,2.839,4.08,6.3,6.925,5.265,0.532,2.23,2.358,3.984,4.4,5.66,0.7-2.736,2.487-4.8,3.254-7.578,0.937,0.605,1.671,2.22,2.292,2.352,0.645-3.963,3.863-9.813,3.305-12.743C447.693,55.09,448.866,57.677,451.309,59.8ZM400.381,42.815a11.61,11.61,0,0,0-3.562-2.419,16.574,16.574,0,0,0,6.534-3.993C404.59,38.449,402.449,42.179,400.381,42.815Zm6.714-1.576c-0.714-.329-1.054.358-1.8-0.05,0.644-1.419.323-2.484,0.413-3.7A4.523,4.523,0,0,1,407.1,41.239Zm-4.95,3.946c0.858-1.051,1.983-1.377,2.657-2.926,0.98,0.242,1.739-.111,2.754.232a16.727,16.727,0,0,0,1.532,5.115c1.193-.624,2.063-2.125,3.646-1.692,0.1,1.421-2.044.437-2.706,1.347a12.163,12.163,0,0,1,4.124.084c0.116,2.737-1.053,5.946-2.462,9.241a25.884,25.884,0,0,0,6.021-.08c-0.883,4.86-8.876,4.208-10.046-.218-0.352,5.193,6.936,6.948,9.813,2.965,0.61-.846.583-2.739,1.817-2.8-0.771,5.385-6.231,7.15-10.083,5.471-5.478-2.387-6.216-10.629-.536-13.994-2.239-.085-6,4.442-5.465,7.858-0.624.5-.858-0.611-1.5-0.691A10.191,10.191,0,0,0,402.145,45.185ZM394.8,60.475c1.39-2,3.671-1.233,5.279-3.533,3.859-1.054,2.947,2.446,5.013,4.9,1.252,1.488,2.474,2.045,4.534,3.127-0.493,6.387-5.572,9.461-10.214,8C394.69,71.495,391.379,65.389,394.8,60.475Zm-2.584,19.041c1.181,0.644,2.541-.307,3.184.43-0.712,1.286-2,1-3.366.525C392.171,80.123,392.512,79.7,392.213,79.516Zm1.126-8.041c1.112,1.012,1.708,2.212,3.265,3.06-0.805,5.562-5.082,3.621-5.592.278A11.581,11.581,0,0,0,393.339,71.475Zm0.8-11.823c0.52,0.611-1.5,2.231-1.784,3.846a17.715,17.715,0,0,0-2.49-1.924C391.111,60.456,392.419,59.5,394.137,59.652Zm-11.966,12.9c-2.62-2.465-2.347-8.265,1.474-10.475,1.9,1.333,3.311-.309,4.866.167,4.261,1.305,4.354,8.057.324,10.526-0.542-.607-0.695-0.377-1.5-0.691a5.806,5.806,0,0,0,2.709-4.72c-1.138,3.346-5.653,4.531-7.045,1.165-0.573.745,0.4,2.449,1.367,3.224a4.156,4.156,0,0,0-1.567.574c5.246-.788,8.882,4.2,6.5,8.44C384.974,88.437,373.548,77.72,382.171,72.555Zm1.048,13.453a6.76,6.76,0,0,0,4.323-.342c-0.014,1.01-.763,2.29-0.743,3.288q-0.429-.2-0.859-0.395a1.761,1.761,0,0,0,1.021,2.286,31.783,31.783,0,0,0-3.182-.43A5.058,5.058,0,0,1,383.219,86.009ZM381.1,99.56c-3.3-2.117-1.192-9.374,3.337-8.321C390.994,92.762,386.271,102.871,381.1,99.56Zm9.406-6.821c-3.822-2.175-1.885-10.428,2.974-9.784C401.46,84.012,396.557,96.182,390.507,92.738Zm9.457-8.613c-3.382-1.7-3.7-5.346-2.5-9.195,4.869,2.265,8.367.811,11.466-1.72C412.318,78.715,405.88,87.1,399.964,84.125Zm13.814-14.646a5.243,5.243,0,0,1-1.912-3.734c3.47-1.045,7.255-1.237,9.323-6.08C427.605,64.037,420.649,74.46,413.778,69.479Zm8.353-13.529c0.992,0.115,1.674-.609,2.508-0.92a8.245,8.245,0,0,1,.494,2.3,3.1,3.1,0,0,1-3.349,1.051A17.924,17.924,0,0,0,422.131,55.95Zm20.615,7.164c-0.743-1.2-1.48-2.413-2.224-3.619-1.349,1.916-2.247,5.2-2.94,7.465a18.029,18.029,0,0,1-2.869-3.916c-2.145,1.047-4.762-2.047-7.355-2.092,2.391-2.333.08-4.428,0.4-7.6,0.228-2.256,1.51-3.827,1.323-5.1-0.2-1.364-3.669-3.973-5.014-1.532-0.894,1.622,1.152,2.019.542,3.881-1.273,3.892-8.455,1.912-11.268,4.664,2.412-4.638,4.674-10.52,4.824-14.9,5.719,4.249,7.371-2.527,11.2-3.4a16.2,16.2,0,0,0-3.082-4.015c1.071-.632,1.748-2.333,3.563-0.951,2.457-1.786,3.7-3.936,6.072-5.243,6.609-3.648,11.266,7.915,15.138,11.125-0.328.88-.993,0.845-1.32,1.726-1.521,3.127,1.392,5.7,1.743,8.586,0.413,3.391-1.507,6.878-.1,10.327-1.448-1.41-1.862-4.216-2.949-6.547-0.992-2.126-2.157-5.036-4.5-5.446C445.011,51.522,445.444,56.743,442.746,63.113Zm-29.822,1.7c-0.264,4.885,8.527,4.687,7.374-.753C419.222,68.261,414.248,67.057,412.924,64.817Z"/>
    <path class="cls-4" d="M506.105,89.591L501,72.7,488.153,89.591H471.4l24.062-29.142L485.5,32.589h16.75l4.4,15.45,11.471-15.45h16.75l-22.808,27.86,10.8,29.142H506.105Zm54.69-20.335a34.558,34.558,0,0,1-3.328,9.287,23.376,23.376,0,0,1-5.141,6,22.5,22.5,0,0,1-14.951,5.444q-8.656,0-12.539-5.444a12.221,12.221,0,0,1-2.311-6,29.08,29.08,0,0,1,.924-9.287,34.55,34.55,0,0,1,3.328-9.287,22.925,22.925,0,0,1,5.08-6.083,21.963,21.963,0,0,1,15.013-5.364q8.734,0,12.477,5.364a12.386,12.386,0,0,1,2.372,6.083A29.019,29.019,0,0,1,560.795,69.256Zm-14.5,0a31.93,31.93,0,0,0,.895-4.963q0.066-3.442-3.138-3.442-3.124,0-4.715,3.442a33.424,33.424,0,0,0-1.377,4.963q-1.026,4.485-.8,5.925a2.72,2.72,0,0,0,3.021,2.561,4.9,4.9,0,0,0,4.273-2.561A24.344,24.344,0,0,0,546.29,69.256ZM601.045,54.2a10.874,10.874,0,0,1,1.328,5.364,47.875,47.875,0,0,1-1.5,9.687,53.621,53.621,0,0,1-2.853,9.488,18.636,18.636,0,0,1-3.858,5.483,18.854,18.854,0,0,1-13.866,5.6,5.819,5.819,0,0,1-3.6-1.081,3.6,3.6,0,0,1-1.6-2.121L570.665,106H556.159l8.432-36.826a36.449,36.449,0,0,1,3.187-9.208,22.179,22.179,0,0,1,5.132-6.163Q579,48.52,588.832,48.521,597.948,48.521,601.045,54.2ZM580.76,77.662a3.911,3.911,0,0,0,3.62-2.162,25.181,25.181,0,0,0,1.991-6.245,23.682,23.682,0,0,0,.907-6.4q-0.246-2.08-2.65-2.082-2.565,0-4.038,3.284a30.817,30.817,0,0,0-1.511,5.2,22.245,22.245,0,0,0-.831,6.085A2.249,2.249,0,0,0,580.76,77.662ZM635.166,61.25h-8.174L623.8,75.181q-0.4,1.759,1.2,1.761h3.765l-2.9,12.649h-7.452a9.918,9.918,0,0,1-7.958-3.4q-2.9-3.4-1.751-8.446l3.775-16.492h-8.413L606.876,49h31.1ZM666.5,89.591H651.919L653,84.866q-2.217,5.128-8.868,5.125-8.579,0-10.248-7.045-1.162-4.722.891-13.689,2.328-10.168,5.956-14.811,4.56-5.922,12.817-5.923,6.249,0,6.6,5.124L661.211,49H675.8Zm-9.928-20.335a20.613,20.613,0,0,0,.778-5.844,2.243,2.243,0,0,0-2.533-2.242,3.9,3.9,0,0,0-3.6,2.08,23.827,23.827,0,0,0-1.935,6.005,20.736,20.736,0,0,0-.815,6.005q0.227,2.159,2.631,2.16a3.9,3.9,0,0,0,3.578-2.32A23.554,23.554,0,0,0,656.575,69.256Zm23.651-37.147L666.01,43.8H655.35L663.4,32.108h16.829ZM707.372,61.25H699.2l-3.19,13.931q-0.4,1.759,1.2,1.761h3.765l-2.9,12.649h-7.454a9.911,9.911,0,0,1-7.956-3.4q-2.907-3.4-1.753-8.446l3.775-16.492h-8.413L679.082,49h31.1Zm31.335,28.341H724.123l1.082-4.725q-2.217,5.128-8.868,5.125-8.575,0-10.246-7.045-1.164-4.722.889-13.689,2.328-10.168,5.956-14.811,4.56-5.922,12.817-5.923,6.252,0,6.6,5.124L733.418,49H748Zm-9.928-20.335a20.575,20.575,0,0,0,.778-5.844,2.243,2.243,0,0,0-2.533-2.242,3.9,3.9,0,0,0-3.6,2.08,23.8,23.8,0,0,0-1.934,6.005,20.686,20.686,0,0,0-.814,6.005q0.226,2.159,2.629,2.16a3.9,3.9,0,0,0,3.578-2.32A23.554,23.554,0,0,0,728.779,69.256Z"/>
    <path class="cls-3" d="M454.654,32.544H434.518L432.7,40.52h5.449l-2.445,10.657a5.568,5.568,0,0,0,1.135,5.285,6.266,6.266,0,0,0,5.153,2h4.826L448.7,50.49h-2.439c-0.693,0-.951-0.262-0.778-1.025l2.066-8.945h5.293Zm0-1H433.727l-0.177.7-1.817,8.008-0.278,1.259H436.9l-2.168,9.437a6.543,6.543,0,0,0,1.349,6.155,7.232,7.232,0,0,0,5.908,2.354h5.618l0.176-.6,1.876-8.19,0.278-1.178h-3.477l1.871-7.976h5.294l0.176-.849,1.817-7.935,0.278-1.185h-1.246Zm-9.176,17.918c-0.173.763,0.085,1.025,0.778,1.025H448.7l-1.876,7.976h-4.826a6.289,6.289,0,0,1-5.153-2.042,5.662,5.662,0,0,1-1.135-5.334l2.445-10.57H432.7l1.817-7.976h20.136l-1.817,7.976h-5.293Zm20.737-7.595c-0.04-.43-0.13-0.555-0.65-0.555a1.554,1.554,0,0,0-1.481.87,14.076,14.076,0,0,0-1.138,3.617,11.9,11.9,0,0,0-.507,3.582c0.031,0.3.053,0.512,0.715,0.512a1.548,1.548,0,0,0,1.456-1.013,13.886,13.886,0,0,0,1.122-3.527A11.876,11.876,0,0,0,466.215,41.87Zm3.489-9.326-0.688,2.95c-0.152-2.222-1.576-3.369-4.275-3.369a9.836,9.836,0,0,0-8.3,3.836q-2.354,3.023-3.858,9.628-1.33,5.836-.576,8.9,1.082,4.586,6.636,4.584a5.744,5.744,0,0,0,5.742-3.509l-0.7,2.9h9.445l6.017-25.922H469.7Zm-3,13.035a15.354,15.354,0,0,1-1.23,3.8,2.528,2.528,0,0,1-2.317,1.511,1.476,1.476,0,0,1-1.7-1.406,13.521,13.521,0,0,1,.527-3.908,15.462,15.462,0,0,1,1.254-3.906,2.525,2.525,0,0,1,2.333-1.355,1.455,1.455,0,0,1,1.639,1.459A13.438,13.438,0,0,1,466.7,45.579Zm12.447-14.032H468.912l-0.177.7-0.04.142a5.553,5.553,0,0,0-3.954-1.283,10.83,10.83,0,0,0-9.087,4.234c-1.668,2.143-2.991,5.419-4.038,10.018-0.931,4.082-1.118,7.144-.573,9.365,0.575,2.434,2.361,5.343,7.6,5.343a8.2,8.2,0,0,0,3.935-1.047l-0.139.44h11.483l0.176-.6,6.017-26.252,0.278-1.062h-1.246ZM463.686,58.466l0.7-2.9c-0.957,2.224-2.871,3.422-5.742,3.422-3.7,0-5.915-1.485-6.636-4.543-0.5-2.048-.311-4.995.576-8.885,1-4.411,2.289-7.611,3.858-9.626a9.846,9.846,0,0,1,8.3-3.848c2.7,0,4.123,1.186,4.275,3.408l0.688-2.947h9.444l-6.017,25.922h-9.445Zm1.879-18.148a2.525,2.525,0,0,0-2.333,1.355,15.462,15.462,0,0,0-1.254,3.906,13.521,13.521,0,0,0-.527,3.908,1.476,1.476,0,0,0,1.7,1.406,2.528,2.528,0,0,0,2.317-1.511,15.354,15.354,0,0,0,1.23-3.8,13.438,13.438,0,0,0,.5-3.8A1.455,1.455,0,0,0,465.565,40.318ZM463.154,49.9c-0.662,0-.684-0.215-0.715-0.512a11.9,11.9,0,0,1,.507-3.582,14.076,14.076,0,0,1,1.138-3.617,1.554,1.554,0,0,1,1.481-.87c0.52,0,.61.125,0.65,0.555a11.876,11.876,0,0,1-.483,3.487,13.886,13.886,0,0,1-1.122,3.527A1.548,1.548,0,0,1,463.154,49.9Z"/>
    <path class="cls-2" d="M454.641,32.527H434.3l-1.835,7.98h5.5L435.5,51.169a5.531,5.531,0,0,0,1.147,5.288,6.362,6.362,0,0,0,5.206,2.005h4.875l1.895-7.98h-2.464c-0.7,0-.961-0.262-0.786-1.026l2.087-8.949h5.347Zm15.2,0-0.7,2.951c-0.154-2.223-1.593-3.371-4.319-3.371a9.976,9.976,0,0,0-8.384,3.837q-2.377,3.024-3.9,9.633-1.344,5.839-.582,8.906,1.094,4.588,6.7,4.586c2.9,0,4.834-1.286,5.8-3.511l-0.708,2.9h9.542l6.078-25.934h-9.54Zm-3.034,13.041a15.246,15.246,0,0,1-1.243,3.8,2.554,2.554,0,0,1-2.34,1.512,1.488,1.488,0,0,1-1.721-1.407,13.417,13.417,0,0,1,.532-3.91,15.387,15.387,0,0,1,1.267-3.908,2.556,2.556,0,0,1,2.357-1.356,1.465,1.465,0,0,1,1.656,1.46A13.287,13.287,0,0,1,466.811,45.569Z"/>
  </g>
</svg>
