<svg id="news_icon" xmlns="http://www.w3.org/2000/svg" width="28" height="23" viewBox="0 0 28 23">
  <defs>
    <style>
      .cls-1 {
        fill: #fff;
      }

      .cls-2 {
        fill: #ffbd68;
      }
    </style>
  </defs>
  <rect class="cls-1" x="2" width="26" height="23"/>
  <rect id="Rectangle_7_copy" data-name="Rectangle 7 copy" class="cls-1" y="2" width="1" height="21"/>
  <rect class="cls-2" x="4" y="2" width="22" height="4"/>
  <rect class="cls-2" x="4" y="8" width="6" height="1"/>
  <rect id="Rectangle_9_copy_9" data-name="Rectangle 9 copy 9" class="cls-2" x="12" y="8" width="6" height="5"/>
  <rect id="Rectangle_9_copy_10" data-name="Rectangle 9 copy 10" class="cls-2" x="20" y="8" width="6" height="5"/>
  <rect id="Rectangle_9_copy" data-name="Rectangle 9 copy" class="cls-2" x="4" y="10" width="6" height="1"/>
  <rect id="Rectangle_9_copy_2" data-name="Rectangle 9 copy 2" class="cls-2" x="4" y="12" width="6" height="1"/>
  <rect id="Rectangle_9_copy_3" data-name="Rectangle 9 copy 3" class="cls-2" x="4" y="14" width="6" height="1"/>
  <rect id="Rectangle_9_copy_4" data-name="Rectangle 9 copy 4" class="cls-2" x="4" y="16" width="6" height="1"/>
  <rect id="Rectangle_9_copy_5" data-name="Rectangle 9 copy 5" class="cls-2" x="4" y="18" width="6" height="1"/>
  <rect id="Rectangle_9_copy_6" data-name="Rectangle 9 copy 6" class="cls-2" x="4" y="20" width="6" height="1"/>
  <rect id="Rectangle_9_copy_7" data-name="Rectangle 9 copy 7" class="cls-2" x="12" y="14" width="6" height="1"/>
  <rect id="Rectangle_9_copy_7-2" data-name="Rectangle 9 copy 7" class="cls-2" x="12" y="16" width="6" height="1"/>
  <rect id="Rectangle_9_copy_7-3" data-name="Rectangle 9 copy 7" class="cls-2" x="12" y="18" width="6" height="1"/>
  <rect id="Rectangle_9_copy_7-4" data-name="Rectangle 9 copy 7" class="cls-2" x="12" y="20" width="6" height="1"/>
  <rect id="Rectangle_9_copy_8" data-name="Rectangle 9 copy 8" class="cls-2" x="20" y="14" width="6" height="1"/>
  <rect id="Rectangle_9_copy_8-2" data-name="Rectangle 9 copy 8" class="cls-2" x="20" y="16" width="6" height="1"/>
  <rect id="Rectangle_9_copy_8-3" data-name="Rectangle 9 copy 8" class="cls-2" x="20" y="18" width="6" height="1"/>
  <rect id="Rectangle_9_copy_8-4" data-name="Rectangle 9 copy 8" class="cls-2" x="20" y="20" width="6" height="1"/>
  <rect class="cls-1" x="1" y="22" width="1" height="1"/>
</svg>
