<svg style="width:43px; height:32.5px; margin-right:10px;" viewBox="0 0 42.54 33.13"><defs><style>.letter-1{fill:#fff;}.letter-1,.letter-2{fill-rule:evenodd;}.letter-2{fill:#272525;}</style></defs><g data-name="Layer 2" id="Layer_2"><g data-name="Layer 1" id="Layer_1-2"><path class="letter-1" d="M31.32,16.36,42.54,8.82V27.91ZM5.63,6.88H42.11L23.87,19.16ZM5.54,28l0-19.16L16.8,16.36Zm18-6.81h1L30.09,17,40.84,27.88H6.9L17.65,17Z"></path><path class="letter-2" d="M19.48,9c-1,1.18-1.58,2-1.27,2.32s.75,0,1.2-.37c-7.32,7.35-15.81,16-16.95,17.86S.1,32.93,0,33.13C.2,33,2.59,31.8,4.38,30.68,7.66,28.63,33.21,2.86,33.21,2.86a2.76,2.76,0,0,0-.88-2,2.71,2.71,0,0,0-2-.87l-1.8,1.77-.44-.44-2,2S20.5,7.76,19.48,9Zm7-5.25.08.08c-1.81,1.81-4.12,4.11-6.59,6.59a.16.16,0,0,0,0-.07,1.18,1.18,0,0,0-.13-1c1-1.19,6.6-5.6,6.6-5.6Z"></path></g></g></svg>